<?xml version="1.0" ?><svg viewBox="0 0 128 128" xmlns="http://www.w3.org/2000/svg"><defs><style>.cls-1{fill:#f8991d;}.cls-2{fill:#314967;}</style></defs><title/><g data-name="02 Shopping Bag" id="_02_Shopping_Bag"><path class="cls-1" d="M90,42.43H38A4,4,0,0,0,34,46l-6.51,58.57a4,4,0,0,0,4,4.44h65a4,4,0,0,0,4-4.44L94,46A4,4,0,0,0,90,42.43Z"/><path class="cls-2" d="M102.48,104.34l-.88-7.94a2,2,0,0,0-4,.44l.88,7.94a2,2,0,0,1-2,2.22H56.16a2,2,0,0,0,0,4H96.51A6,6,0,0,0,102.48,104.34Z"/><path class="cls-2" d="M50,107H31.49a2,2,0,0,1-2-2.22L34,64.22a2,2,0,0,0-4-.44l-4.51,40.56a6,6,0,0,0,6,6.66H50A2,2,0,0,0,50,107Z"/><path class="cls-2" d="M58.66,20.8A12.34,12.34,0,0,1,76.34,31.93v8.51h-3a2,2,0,0,0,0,4h3V48a2,2,0,0,0,4,0V44.43H90a2,2,0,0,1,2,1.78l5,44.56a2,2,0,0,0,4-.44L96,45.77a6,6,0,0,0-6-5.34H80.34V31.93A16.34,16.34,0,0,0,56.93,17.2,2,2,0,0,0,58.66,20.8Z"/><path class="cls-2" d="M51.66,52V44.43H67.12a2,2,0,0,0,0-4H51.66c0-8.76-.52-11.57,2.14-15.46a2,2,0,0,0-3.3-2.26C47,27.8,47.66,31.82,47.66,40.43H38a6,6,0,0,0-6,5.34L30.86,56.28a2,2,0,0,0,4,.44L36,46.21a2,2,0,0,1,2-1.78h9.67V52a4.49,4.49,0,1,0,4,0Z"/><circle class="cls-2" cx="78.34" cy="56" r="4.5"/></g></svg>